# xmcd
#
# Track frame offsets: 
#        150
#        19101
#        39382
#        65696
#        94197
#        116380
#        142777
#        166994
#        188069
#        257242
#        311294
#
# Disc length: 4605 seconds
#
# Revision: 0
# Processed by: cddbd v1.5PL3 Copyright (c) Steve Scherf et al.
# Submitted via: ExactAudioCopy v0.90b4
#
DISCID=8911fb0b
DTITLE=Dana Gillespie - BQR
DYEAR=2003
DGENRE=Blues
TTITLE0=Big Boy
TTITLE1=Experienced
TTITLE2=Meat Balls
TTITLE3=St. Louis Blues
TTITLE4=Come On (If You're Coming)
TTITLE5=Organ Grinder
TTITLE6=Too Many Drivers
TTITLE7=Ugly Papa
TTITLE8=Big Daddy Blues
TTITLE9=A Lotta What You Got
TTITLE10=I Want You To Be My Baby
EXTD=
EXTT0=
EXTT1=
EXTT2=
EXTT3=
EXTT4=
EXTT5=
EXTT6=
EXTT7=
EXTT8=
EXTT9=
EXTT10=
PLAYORDER=
